<?xml version="1.0" standalone="no"?>
<!DOCTYPE svg PUBLIC "-//W3C//DTD SVG 20010904//EN"
 "http://www.w3.org/TR/2001/REC-SVG-20010904/DTD/svg10.dtd">
<svg version="1.0" xmlns="http://www.w3.org/2000/svg"
 width="700.000000pt" height="700.000000pt" viewBox="0 0 700.000000 700.000000"
 preserveAspectRatio="xMidYMid meet">
<metadata>
Created by potrace 1.11, written by Peter Selinger 2001-2013
</metadata>
<g transform="translate(0.000000,700.000000) scale(0.100000,-0.100000)"
fill="#000000" stroke="none">
<path d="M0 4478 l0 -2523 1340 1340 1340 1340 788 -788 787 -789 1373 1378
1372 1377 0 594 0 593 -3500 0 -3500 0 0 -2522z"/>
<path d="M5623 3428 l-1373 -1373 -785 785 -785 785 -1340 -1340 -1340 -1340
0 -472 0 -473 3500 0 3500 0 0 2400 c0 1320 -1 2400 -3 2400 -1 0 -620 -618
-1374 -1372z"/>
</g>
</svg>
