<svg xmlns="http://www.w3.org/2000/svg" viewBox="0 0 317.31 47.65"><defs><style>.cls-1{fill:#fff;}</style></defs><title>logo</title><g id="Layer_2" data-name="Layer 2"><g id="Layer_1-2" data-name="Layer 1"><path class="cls-1" d="M7.13,37.23a16.86,16.86,0,0,1-5.91-2.94,3.22,3.22,0,0,1-.56-4.48A2,2,0,0,1,2.23,29a4.35,4.35,0,0,1,2.17.74,15.94,15.94,0,0,0,4.77,2.39,19.43,19.43,0,0,0,5.51.74,10.88,10.88,0,0,0,5.94-1.35,4.42,4.42,0,0,0,2.06-4,3.39,3.39,0,0,0-1.93-3.1,25.83,25.83,0,0,0-6.44-2.09A38.16,38.16,0,0,1,6.73,20a10.68,10.68,0,0,1-4.4-3.39A8.77,8.77,0,0,1,.85,11.4,9.91,9.91,0,0,1,2.7,5.51a12.23,12.23,0,0,1,5.17-4A18.34,18.34,0,0,1,15.32,0Q22.9,0,27.67,4a4.27,4.27,0,0,1,1,1.14,3.06,3.06,0,0,1,.29,1.4,3,3,0,0,1-.66,1.94,2,2,0,0,1-1.57.82,3.1,3.1,0,0,1-1-.16,8.25,8.25,0,0,1-1.19-.58,17.85,17.85,0,0,0-4.21-2.36,14.42,14.42,0,0,0-5-.77,9.74,9.74,0,0,0-5.7,1.46A4.65,4.65,0,0,0,7.53,11a3.71,3.71,0,0,0,1.85,3.34,21.68,21.68,0,0,0,6.31,2.17,43.28,43.28,0,0,1,7.66,2.36,11.39,11.39,0,0,1,4.5,3.31,8,8,0,0,1,1.57,5A9.61,9.61,0,0,1,27.59,33a11.91,11.91,0,0,1-5.14,3.92,19.31,19.31,0,0,1-7.61,1.41A26.56,26.56,0,0,1,7.13,37.23Z"/><path class="cls-1" d="M50.88,35.62a2.15,2.15,0,0,1-1,1.93,5,5,0,0,1-2.94.56L45.47,38q-8.89-.63-8.9-9.54V16.91H33.92a3.39,3.39,0,0,1-2.2-.64A2.27,2.27,0,0,1,31,14.42a2.27,2.27,0,0,1,.77-1.86,3.39,3.39,0,0,1,2.2-.64h2.65V7.05a3,3,0,0,1,.9-2.28,3.43,3.43,0,0,1,2.44-.85,3.35,3.35,0,0,1,2.38.85,3,3,0,0,1,.91,2.28v4.87h4.5a3.39,3.39,0,0,1,2.2.64,2.27,2.27,0,0,1,.77,1.86,2.27,2.27,0,0,1-.77,1.85,3.39,3.39,0,0,1-2.2.64H43.2v12c0,2.61,1.2,4,3.6,4.18l1.43.11C50,33.34,50.88,34.13,50.88,35.62Z"/><path class="cls-1" d="M59.17,36.62a11.31,11.31,0,0,1-4.63-4.71,14.93,14.93,0,0,1-1.65-7.16,14.75,14.75,0,0,1,1.65-7.13,11.43,11.43,0,0,1,4.63-4.69,15.63,15.63,0,0,1,13.94,0,11.21,11.21,0,0,1,4.61,4.69,15,15,0,0,1,1.62,7.13,15.15,15.15,0,0,1-1.62,7.16,11.09,11.09,0,0,1-4.61,4.71,15.55,15.55,0,0,1-13.94,0ZM71,31q1.7-2.12,1.7-6.25A9.88,9.88,0,0,0,71,18.52a5.85,5.85,0,0,0-4.88-2.14,5.92,5.92,0,0,0-4.9,2.14q-1.73,2.14-1.72,6.23T61.21,31a5.88,5.88,0,0,0,4.88,2.12A5.92,5.92,0,0,0,71,31Z"/><path class="cls-1" d="M89.49,36.62A11.18,11.18,0,0,1,85,32a14.93,14.93,0,0,1-1.59-7A14.75,14.75,0,0,1,85,17.78,11.78,11.78,0,0,1,89.73,13a13.93,13.93,0,0,1,6.94-1.69,15.35,15.35,0,0,1,4.16.58,13.79,13.79,0,0,1,3.69,1.59,3.28,3.28,0,0,1,1.69,2.81,3,3,0,0,1-.55,1.88,1.77,1.77,0,0,1-1.46.72A3.1,3.1,0,0,1,103,18.6a10,10,0,0,1-1.27-.63,14.67,14.67,0,0,0-2.23-1.09,7.05,7.05,0,0,0-2.44-.4A6.2,6.2,0,0,0,92,18.63a9.47,9.47,0,0,0-1.77,6.17A9.43,9.43,0,0,0,92,30.93,6.19,6.19,0,0,0,97,33.07a6.45,6.45,0,0,0,2.36-.4,19,19,0,0,0,2.31-1.08,11,11,0,0,1,1.37-.72,3.06,3.06,0,0,1,1.17-.24,1.75,1.75,0,0,1,1.43.75,2.88,2.88,0,0,1,.58,1.85,3,3,0,0,1-.39,1.56,3.63,3.63,0,0,1-1.3,1.2,14.33,14.33,0,0,1-3.82,1.67,16.65,16.65,0,0,1-4.45.61A13.68,13.68,0,0,1,89.49,36.62Z"/><path class="cls-1" d="M134.78,35a3.09,3.09,0,0,1-.88,2.17,2.67,2.67,0,0,1-2,1,3.09,3.09,0,0,1-2.17-1l-12.4-11.23V35a2.86,2.86,0,0,1-1,2.33,3.59,3.59,0,0,1-2.38.8,3.51,3.51,0,0,1-2.36-.8,2.9,2.9,0,0,1-.93-2.33V3.34A2.89,2.89,0,0,1,111.59,1,3.51,3.51,0,0,1,114,.21a3.59,3.59,0,0,1,2.38.8,2.84,2.84,0,0,1,1,2.33V23.27L128.63,12.4a3,3,0,0,1,2.17-1,3.07,3.07,0,0,1,3,3,3.08,3.08,0,0,1-1,2.22l-8.32,7.74,9.22,8.27A3.09,3.09,0,0,1,134.78,35Z"/><path class="cls-1" d="M162,12.24a3,3,0,0,1,.9,2.28V35.09a2.86,2.86,0,0,1-.93,2.22,3.41,3.41,0,0,1-2.41.85,3.16,3.16,0,0,1-2.28-.8,2.81,2.81,0,0,1-.85-2.17V33.87a8.49,8.49,0,0,1-3.28,3.26,9.53,9.53,0,0,1-4.67,1.14q-9.54,0-9.54-10.71v-13a3,3,0,0,1,.9-2.28,3.37,3.37,0,0,1,2.39-.84,3.44,3.44,0,0,1,2.44.84,3,3,0,0,1,.9,2.28V27.61a6.25,6.25,0,0,0,1.11,4.08,4.3,4.3,0,0,0,3.5,1.33,5.7,5.7,0,0,0,4.42-1.83,6.89,6.89,0,0,0,1.67-4.85V14.52a3,3,0,0,1,.9-2.28,3.37,3.37,0,0,1,2.39-.84A3.44,3.44,0,0,1,162,12.24Z"/><path class="cls-1" d="M190.61,13a11.27,11.27,0,0,1,4.08,4.8,16.49,16.49,0,0,1,1.46,7.13A15.94,15.94,0,0,1,194.69,32a10.71,10.71,0,0,1-10,6.31,10.23,10.23,0,0,1-4.93-1.17,8.25,8.25,0,0,1-3.34-3.23V44.68a2.74,2.74,0,0,1-.9,2.17,3.9,3.9,0,0,1-4.8-.05,2.91,2.91,0,0,1-.92-2.23v-30a3.05,3.05,0,0,1,.87-2.28A3.26,3.26,0,0,1,173,11.4a3.38,3.38,0,0,1,2.39.84,3,3,0,0,1,.9,2.28v1.33a8.14,8.14,0,0,1,3.36-3.37,10.42,10.42,0,0,1,5-1.19A10.73,10.73,0,0,1,190.61,13Zm-2.83,18a9.42,9.42,0,0,0,1.75-6.07,9.93,9.93,0,0,0-1.75-6.25A6.53,6.53,0,0,0,178,18.6a9.78,9.78,0,0,0-1.72,6.2A9.68,9.68,0,0,0,178,31a5.88,5.88,0,0,0,4.9,2.17A5.94,5.94,0,0,0,187.78,31Z"/><path class="cls-1" d="M201.24,37a4.18,4.18,0,0,1,0-5.67,4,4,0,0,1,5.62,0,4.18,4.18,0,0,1,0,5.67,4,4,0,0,1-5.62,0Z"/><path class="cls-1" d="M236.17,21.46V37.84h-3.24V21.68c0-2.55-.51-4.4-1.53-5.57s-2.65-1.75-4.88-1.75a8.25,8.25,0,0,0-6.12,2.33A8.51,8.51,0,0,0,218.09,23V37.84h-3.23V12.14H218v4.4a8.61,8.61,0,0,1,3.52-3.74,10.66,10.66,0,0,1,5.33-1.3Q236.16,11.5,236.17,21.46Z"/><path class="cls-1" d="M248.36,1.27V5.35h-4.24V1.27Zm-3.77,10.87h3.24v25.7h-3.24Z"/><path class="cls-1" d="M277.66,21.46V37.84h-3.23V21.68c0-2.55-.51-4.4-1.54-5.57s-2.65-1.75-4.87-1.75a8.22,8.22,0,0,0-6.12,2.33A8.51,8.51,0,0,0,259.59,23V37.84h-3.23V12.14h3.18v4.4a8.61,8.61,0,0,1,3.52-3.74,10.66,10.66,0,0,1,5.33-1.3Q277.66,11.5,277.66,21.46Z"/><path class="cls-1" d="M289.32,38q0,8.8-8.85,9.38l-2.33.16-.32-2.6,2.33-.16a6.4,6.4,0,0,0,4.43-1.85,6.55,6.55,0,0,0,1.51-4.61V12.14h3.23Zm.53-36.73V5.35h-4.24V1.27Z"/><path class="cls-1" d="M315,13.94q2.31,2.43,2.31,7.37V37.84h-3.18V33.23a8.32,8.32,0,0,1-3.24,3.68,9.07,9.07,0,0,1-4.87,1.3,10.3,10.3,0,0,1-4.56-1,8.06,8.06,0,0,1-3.26-2.81,7.1,7.1,0,0,1-1.19-4A6.26,6.26,0,0,1,298.49,26a9,9,0,0,1,4.93-2.28A51.6,51.6,0,0,1,313,23h1.12V21c0-2.33-.48-4-1.43-5.11a5.73,5.73,0,0,0-4.51-1.62,15.18,15.18,0,0,0-4.48.66,17.73,17.73,0,0,0-4.42,2.15l-1.22-2.49a15.7,15.7,0,0,1,4.66-2.28,17.5,17.5,0,0,1,5.3-.85Q312.7,11.5,315,13.94Zm-3.07,19.13a8.31,8.31,0,0,0,2.2-5.93V25.39h-1a54.35,54.35,0,0,0-7.79.42,7.3,7.3,0,0,0-3.82,1.46,3.89,3.89,0,0,0-1.11,3A4.63,4.63,0,0,0,302.1,34a6.18,6.18,0,0,0,4.18,1.45A7.41,7.41,0,0,0,311.93,33.07Z"/></g></g></svg>